<?xml version="1.0" standalone="no"?>
<!DOCTYPE svg PUBLIC "-//W3C//DTD SVG 20010904//EN"
 "http://www.w3.org/TR/2001/REC-SVG-20010904/DTD/svg10.dtd">
<svg version="1.0" xmlns="http://www.w3.org/2000/svg"
 width="955.000000pt" height="192.000000pt" viewBox="0 0 955.000000 192.000000"
 preserveAspectRatio="xMidYMid meet">
<metadata>
Created by potrace 1.16, written by Peter Selinger 2001-2019
</metadata>
<g transform="translate(0.000000,192.000000) scale(0.100000,-0.100000)"
fill="#000000" stroke="none">
<path d="M0 960 l0 -960 4775 0 4775 0 0 960 0 960 -4775 0 -4775 0 0 -960z
m5010 0 l0 -350 -65 0 -65 0 0 37 0 37 -32 -31 c-77 -74 -183 -69 -249 10 -50
59 -68 235 -35 334 46 138 207 179 292 75 l21 -26 -4 132 -4 132 71 0 70 0 0
-350z m-2142 265 c99 -30 152 -118 133 -221 -22 -118 -105 -174 -258 -174
l-73 0 0 -110 0 -110 -70 0 -70 0 0 315 0 315 143 0 c100 0 159 -5 195 -15z
m679 -118 c17 -9 42 -31 55 -49 21 -30 23 -46 28 -191 4 -139 7 -160 23 -172
11 -8 25 -11 33 -8 11 4 14 -5 14 -35 0 -38 -1 -40 -39 -46 -78 -12 -141 23
-141 78 0 17 -5 14 -32 -18 -74 -90 -204 -88 -266 4 -20 29 -23 45 -20 93 8
107 61 147 205 155 l95 5 -5 43 c-6 61 -21 76 -71 72 -35 -3 -43 -8 -56 -35
-14 -30 -18 -33 -65 -32 -27 0 -58 3 -67 7 -16 7 -16 10 1 47 22 49 48 72 98
91 49 18 167 13 210 -9z m707 8 c19 -9 43 -34 57 -58 23 -40 24 -52 27 -244
l4 -203 -66 0 -66 0 0 143 c-1 171 -6 214 -29 247 -20 28 -68 38 -101 20 -11
-6 -29 -28 -40 -50 -18 -34 -20 -59 -20 -200 l0 -160 -65 0 -65 0 0 224 c0
123 -3 238 -6 255 l-6 31 66 0 66 0 0 -40 c0 -47 9 -50 37 -12 43 58 139 79
207 47z m2090 9 c12 -5 16 -20 16 -60 l0 -53 -62 6 c-82 7 -127 -11 -165 -68
-27 -41 -28 -48 -31 -191 l-4 -148 -63 0 -63 0 -5 218 c-3 119 -10 234 -15
255 l-10 37 64 0 63 0 10 -37 c6 -21 11 -45 11 -53 0 -8 10 2 22 22 29 50 86
78 160 78 31 0 63 -3 72 -6z m-964 -179 c0 -135 3 -183 15 -204 34 -68 113
-50 144 32 6 16 11 99 11 188 l0 160 67 -3 67 -3 1 -252 2 -253 -64 0 -63 0 0
47 0 48 -32 -39 c-77 -93 -203 -87 -262 14 -19 32 -21 55 -25 238 l-3 202 71
0 71 0 0 -175z m1520 -35 l0 -210 85 0 85 0 0 -45 0 -45 -242 2 -243 3 0 40 0
40 93 3 92 3 0 164 0 165 -70 0 -70 0 0 45 0 45 135 0 135 0 0 -210z"/>
<path d="M4737 1029 c-35 -21 -51 -70 -51 -164 0 -73 3 -97 20 -125 26 -45 65
-60 102 -40 82 46 91 268 13 327 -19 15 -60 16 -84 2z"/>
<path d="M2670 1036 l0 -96 68 0 c79 0 107 15 120 64 23 83 -9 119 -114 124
l-74 4 0 -96z"/>
<path d="M3390 843 c-35 -13 -50 -37 -50 -78 0 -71 50 -96 105 -53 30 24 55
74 55 113 0 23 -3 25 -47 24 -27 0 -55 -3 -63 -6z"/>
</g>
</svg>
